<svg width="16" height="16" viewBox="0 0 16 16" fill="none" xmlns="http://www.w3.org/2000/svg">
<path d="M7.547 0C3.37889 0 0 3.48853 0 7.79187C0 12.0952 3.37889 15.5837 7.547 15.5837C11.7151 15.5837 15.094 12.0952 15.094 7.79187C15.094 3.48853 11.7151 0 7.547 0ZM10.4262 3.96807L9.38237 3.96855C8.56382 3.96855 8.40554 4.37014 8.40554 4.95938V6.25869H10.3575L10.3566 8.29374H8.40569V13.5162H6.36974V8.29374H4.66779V6.25869H6.36974V4.75786C6.36974 3.01615 7.40046 2.06758 8.90523 2.06758L10.4264 2.06997V3.96807H10.4262Z" fill="white"/>
</svg>
