<svg width="29" height="15" viewBox="0 0 29 15" fill="none" xmlns="http://www.w3.org/2000/svg">
<path fill-rule="evenodd" clip-rule="evenodd" d="M7.30873 2.20708L7.68776 2.27207C7.75093 2.27207 7.78252 2.30456 7.78252 2.40204L8.22471 2.95443C8.2563 2.98692 8.31947 3.01941 8.35105 3.01941L8.50898 3.0844C8.60374 3.14938 8.73008 3.0844 8.79325 2.98692L9.23545 2.23958C9.26703 2.20708 9.29862 2.17459 9.36179 2.1421L10.0883 1.84966C10.2146 1.81716 10.2778 1.68719 10.2462 1.55722L10.1198 0.97234C10.1198 0.907354 10.0883 0.842368 10.0251 0.809874L8.95118 0.0950247C8.91959 0.0625315 8.82484 0.0300382 8.76167 0.0625314L7.02446 0.582422C6.89812 0.614916 6.83495 0.712395 6.83495 0.809874V0.939848C6.83495 0.972341 6.83495 1.00483 6.86654 1.03733L7.11922 1.55722C7.15081 1.6222 7.18239 1.68719 7.15081 1.75218L7.11922 1.88215C7.08763 2.04462 7.15081 2.17459 7.30873 2.20708ZM0.675565 3.08444H0.865078C1.08618 3.08444 1.2441 2.95447 1.33886 2.69452C1.37045 2.62954 1.40203 2.59704 1.4652 2.59704L2.31801 2.66203C2.3338 2.67828 2.3496 2.6864 2.36539 2.69452C2.38118 2.70265 2.39697 2.71077 2.41277 2.72702L2.69704 3.18192C2.72862 3.21441 2.72862 3.21441 2.72862 3.24691L2.69704 3.50685C2.69704 3.70181 2.53911 3.86428 2.3496 3.89677C2.28642 3.89677 2.25484 3.92926 2.25484 3.99425L2.1285 5.42395C2.1285 5.45644 2.1285 5.48894 2.16008 5.52143L2.76021 6.10631C2.79179 6.1388 2.82338 6.20379 2.79179 6.23628C2.69704 6.46373 2.82338 6.72368 3.04448 6.78866L3.80253 6.98362C3.8657 6.98362 3.89728 7.01612 3.89728 7.0811C3.89728 7.1136 3.92887 7.17858 3.96045 7.17858L4.3079 7.30856C4.33948 7.34105 4.37107 7.37354 4.37107 7.40603L4.40265 7.69847C4.40265 7.76346 4.49741 7.79595 4.56058 7.76346L4.71851 7.66598C4.75009 7.63349 4.81326 7.63349 4.84485 7.66598L4.93961 7.76346C4.97119 7.79595 4.97119 7.86094 4.97119 7.89343L4.87643 8.21836C4.87643 8.25086 4.84485 8.28335 4.81326 8.28335L4.65534 8.31584C4.59216 8.31584 4.56058 8.34834 4.56058 8.41332V8.93321C4.56058 8.96571 4.56058 8.9982 4.59216 9.03069L5.19229 9.55059C5.22387 9.58308 5.22387 9.64806 5.22387 9.68056L5.19229 9.74554C5.09753 10.038 5.22387 10.3629 5.47656 10.5254L5.69766 10.6554C5.72924 10.6878 5.76083 10.7203 5.76083 10.7528V12.6374C5.76083 12.8974 5.88717 13.1248 6.07668 13.2548C6.13985 13.2548 6.13985 13.3198 6.13985 13.3523L6.10827 13.4823C6.07668 13.7422 6.17144 13.9697 6.39254 14.0996L6.48729 14.1646C6.70839 14.2946 6.99266 14.1971 7.08742 13.9372L7.119 13.8722C7.119 13.8397 7.119 13.7747 7.05583 13.7422L6.77156 13.5797C6.73998 13.5797 6.70839 13.5148 6.70839 13.4823V12.8649C6.70839 12.5075 6.86632 12.1825 7.119 11.9551L7.71913 11.4027C8.03498 11.1103 8.19291 10.6878 8.12974 10.2329L8.09815 10.1355C8.09815 10.103 8.09815 10.0705 8.12974 10.038L8.38242 9.74554C8.57193 9.55058 8.60352 9.25815 8.47718 9.03069L8.09815 8.38083C8.09815 8.34834 8.06657 8.31584 8.03498 8.31584L7.3401 8.21836C7.27693 8.21836 7.24534 8.18587 7.24534 8.12088V7.89343C7.24534 7.86094 7.21376 7.79595 7.15059 7.79595H6.80315C6.77156 7.79595 6.73998 7.79595 6.70839 7.76346L6.36095 7.37354C6.32937 7.34105 6.29778 7.34105 6.26619 7.34105H4.78168C4.75009 7.34105 4.68692 7.30855 4.68692 7.24357C4.65534 7.04861 4.52899 6.88614 4.33948 6.85365L4.18155 6.82116C4.11838 6.82116 4.0868 6.78866 4.0868 6.72368V6.46373C4.0868 6.43124 4.05521 6.36625 4.02363 6.36625L3.73936 6.26877C3.67619 6.23628 3.6446 6.17129 3.67619 6.10631L3.8657 5.6839C3.8657 5.6514 3.89728 5.61891 3.92887 5.61891L4.59216 5.42395C4.65534 5.39146 4.68692 5.42395 4.71851 5.45644L4.97119 5.81387C4.98698 5.81387 5.00278 5.82199 5.01857 5.83012C5.03436 5.83824 5.05015 5.84636 5.06595 5.84636H5.09753C5.12912 5.84636 5.19229 5.81387 5.19229 5.74888V5.42395C5.19229 5.39146 5.22387 5.35897 5.25546 5.32647L5.25546 5.32647L6.07668 4.77409C6.29778 4.64411 6.42412 4.35168 6.36095 4.09173C6.36095 4.02674 6.42412 3.96176 6.48729 3.96176L7.46644 4.05924C7.71913 4.09173 7.90864 3.89677 7.90864 3.66932V3.34439C7.90864 3.21441 7.81388 3.11693 7.68754 3.11693C7.65596 3.11693 7.62437 3.08444 7.59278 3.05195L7.49803 2.88948C7.37169 2.66203 7.15059 2.56455 6.8979 2.59704L6.39254 2.69452C6.36095 2.69452 6.36095 2.69452 6.32937 2.72702C6.26619 2.85699 6.10827 2.88948 5.98193 2.8245C5.824 2.75951 5.824 2.56455 5.95034 2.46707L6.32937 2.23962C6.36095 2.23962 6.39254 2.20712 6.39254 2.17463L6.42412 2.04466C6.51888 1.75222 6.29778 1.45978 6.01351 1.42729L5.22387 1.3623C5.00278 1.3623 4.75009 1.45978 4.62375 1.65474L4.52899 1.78471C4.49741 1.81721 4.46582 1.81721 4.43424 1.81721L1.30727 1.3948C1.05459 1.3623 0.833493 1.58975 0.896664 1.8497L0.928249 2.10964C0.959835 2.17463 0.896664 2.23962 0.833493 2.23962H0.422881C0.391296 2.23962 0.328125 2.27211 0.328125 2.3371V2.8245C0.328125 2.85699 0.35971 2.88948 0.35971 2.88948L0.612394 3.05195C0.64398 3.08444 0.64398 3.08444 0.675565 3.08444ZM28.4075 1.91443C28.376 1.84945 28.3128 1.84945 28.2812 1.84945L26.9546 2.0444C26.923 2.0444 26.8599 2.0444 26.8283 2.01191L26.4492 1.55701L26.4492 1.55699L26.4492 1.55698L26.4492 1.55697C26.431 1.53822 26.4233 1.5303 26.4139 1.52696C26.4071 1.52451 26.3994 1.52451 26.3861 1.52451L24.6173 1.19958H24.5541L23.6065 1.39454C23.2275 1.49202 22.8169 1.36205 22.5326 1.1021C22.3431 0.907144 22.0904 0.809664 21.8062 0.809664H19.6268C19.5952 0.809664 19.5636 0.809664 19.5636 0.842157L19.0898 1.16709C19.0582 1.19958 19.0267 1.23208 19.0267 1.26457C19.0267 1.42703 18.9319 1.55701 18.774 1.62199L18.4581 1.71947C18.3634 1.75197 18.237 1.71947 18.2054 1.5895C18.1738 1.55701 18.1423 1.52451 18.0791 1.52451H17.1315H16.7525H16.7209L15.8049 1.23208C15.5838 1.16709 15.3627 1.16709 15.1416 1.26457L14.889 1.39454C14.6679 1.49202 14.5099 1.65449 14.4468 1.88194L14.352 2.14189C14.2888 2.33684 14.2888 2.5318 14.3836 2.69427L14.4783 2.85673C14.5099 2.88923 14.5415 2.92172 14.6047 2.92172H14.731C14.9205 2.92172 15.1101 2.79175 15.1732 2.59679C15.1732 2.5643 15.2048 2.5318 15.268 2.49931L15.4575 2.43432C15.5523 2.40183 15.6154 2.46682 15.647 2.5643L15.6786 2.92172C15.7102 3.14917 15.5523 3.37663 15.3627 3.44161L14.8574 3.63657C14.7942 3.66906 14.6994 3.60408 14.6994 3.53909L14.6363 3.27915C14.6363 3.21416 14.5731 3.18167 14.5415 3.18167L14.3204 3.14917C14.2257 3.14917 14.1625 3.18167 14.1625 3.27915V3.60408C14.1625 3.66906 14.1309 3.70156 14.0677 3.73405L13.594 3.86402C13.5624 3.86402 13.5308 3.89652 13.5308 3.92901L13.3729 4.25394C13.3413 4.28644 13.3413 4.35142 13.3729 4.38391L13.436 4.51389C13.4676 4.61137 13.4044 4.70885 13.3097 4.70885C13.0886 4.70885 12.9622 4.90381 12.9938 5.09876L13.057 5.35871C13.057 5.4237 13.1202 5.45619 13.1833 5.45619H13.5624C13.6255 5.45619 13.6571 5.4237 13.6887 5.35871L13.7519 5.16375C13.7519 5.09876 13.8151 5.06627 13.8782 5.06627L14.2888 5.09876C14.3204 5.09876 14.352 5.09876 14.352 5.06627L14.5731 4.9363C14.6363 4.90381 14.6994 4.9038 14.7626 4.96879L14.9837 5.29372C15.0153 5.32622 15.0153 5.35871 15.0153 5.4237V5.45619C14.9837 5.55367 15.1101 5.68364 15.2048 5.61865L15.268 5.58616C15.3312 5.55367 15.3627 5.48868 15.3312 5.4237L15.2048 5.03378C15.1732 4.96879 15.2048 4.9038 15.268 4.87131H15.2996C15.3627 4.83882 15.4259 4.87131 15.4575 4.90381L15.6154 5.09876C15.7734 5.32622 16.0892 5.4237 16.3419 5.32622H16.3735C16.4366 5.29372 16.4682 5.32622 16.4998 5.35871L16.8788 5.74863C16.9104 5.78112 16.9104 5.81361 16.9104 5.8786L16.8473 6.23603C16.8473 6.30101 16.7841 6.3335 16.7525 6.3335L15.6786 6.59345H15.5838L14.9837 6.30101C14.9521 6.30101 14.9205 6.26852 14.9205 6.23603C14.7942 5.97608 14.5415 5.78112 14.2257 5.78112L13.7519 5.74863C13.7203 5.74863 13.6887 5.74863 13.6571 5.78112L12.8675 6.43098C12.4569 6.75592 12.2042 7.24331 12.141 7.76321C12.141 7.7957 12.1094 7.82819 12.0778 7.86068L11.9831 7.92567C11.9515 7.95816 11.9199 7.99066 11.9199 8.05564C11.9199 8.51055 12.1094 8.96545 12.4569 9.25789L12.7411 9.51784C12.7727 9.55033 12.8043 9.55033 12.8359 9.55033H14.0677C14.0993 9.55033 14.1309 9.55033 14.1309 9.58282L14.4783 9.81028C14.5099 9.84277 14.5415 9.87526 14.5415 9.90775L14.5731 10.5251C14.5731 10.5901 14.6047 10.6226 14.6363 10.6551L15.0469 10.8501C15.1101 10.8826 15.1416 10.915 15.1101 10.98L14.9837 12.1173C14.9521 12.3772 15.0153 12.6047 15.1416 12.8321L15.2996 13.0596C15.2996 13.0758 15.3075 13.084 15.3154 13.0921C15.3233 13.1002 15.3312 13.1083 15.3312 13.1246L15.3627 13.4495C15.3943 13.8069 15.647 14.0994 15.9944 14.1644C16.2471 14.1969 16.4998 14.1319 16.6893 13.9369L16.8788 13.7744C17.1947 13.4495 17.3526 13.0271 17.3526 12.5722V12.2148C17.3526 12.1823 17.3842 12.1173 17.4158 12.1173L17.7001 11.8898C17.9527 11.6949 18.0791 11.4024 18.0791 11.0775V10.2652C18.0791 10.2327 18.0791 10.2002 18.1107 10.1677L18.7108 9.48534C18.7424 9.45285 18.7424 9.42036 18.7424 9.35537C18.6792 9.06293 18.4581 8.83548 18.1738 8.738L18.1107 8.70551C17.8896 8.64052 17.7316 8.44556 17.7316 8.21811C17.7316 8.08814 17.6685 7.95816 17.5737 7.86068L17.3526 7.63323C17.321 7.60074 17.321 7.56825 17.321 7.53575L17.3526 7.11334C17.3526 7.06572 17.3865 7.01811 17.4295 6.99606C17.4552 7.00849 17.479 7.02842 17.479 7.04836L18.0159 7.69822C18.0475 7.73071 18.0475 7.76321 18.0475 7.7957V8.12063C18.0475 8.18562 18.0791 8.2506 18.1423 8.2506L18.3318 8.31559H18.4265L19.0267 7.95816C19.2478 7.82819 19.3109 7.53575 19.153 7.34079L18.7424 6.72342C18.6792 6.62594 18.7424 6.52846 18.8371 6.52846L19.1846 6.49597C19.2478 6.49597 19.2793 6.52846 19.3109 6.59345L19.4373 6.91838C19.4373 6.93463 19.4452 6.94275 19.4531 6.95088C19.461 6.959 19.4689 6.96712 19.4689 6.98337L20.1637 7.50326H20.1953L20.6375 7.69822C20.7007 7.73071 20.7323 7.76321 20.7323 7.82819L20.6691 8.02315C20.6375 8.31559 20.7323 8.57553 20.9218 8.77049L21.3324 9.16041C21.4903 9.32288 21.7746 9.25789 21.8693 9.03044L22.3115 7.7957C22.3431 7.73071 22.4063 7.69822 22.4695 7.69822L22.8801 7.76321C22.9117 7.76321 22.9748 7.7957 22.9748 7.86068L23.3223 8.86797C23.3223 8.88422 23.3302 8.89234 23.3381 8.90047C23.346 8.90859 23.3539 8.91671 23.3539 8.93296L23.4802 9.06293C23.575 9.16041 23.7013 9.09543 23.7013 8.96545L23.6697 8.738C23.6697 8.64052 23.7329 8.57553 23.7961 8.60803C23.8119 8.60803 23.8276 8.61615 23.8434 8.62428C23.8592 8.6324 23.875 8.64052 23.8908 8.64052C24.0172 8.77049 24.1751 8.80299 24.333 8.70551L24.6173 8.51055C24.6489 8.47806 24.6805 8.44556 24.6805 8.38058L24.6489 7.14583C24.6489 7.08085 24.6805 7.01586 24.7436 7.01586L25.0911 6.91838C25.1227 6.91838 25.1858 6.88589 25.1858 6.8209L25.3438 6.23603C25.3438 6.20353 25.3438 6.13855 25.3122 6.10605L25.0911 5.84611C24.9331 5.65115 24.9016 5.3912 25.0279 5.16375L25.0911 5.00129C25.1227 4.96879 25.1542 4.9363 25.1858 4.9363C25.3122 4.9363 25.4385 4.83882 25.5017 4.70885L26.2913 2.98671C26.3229 2.92172 26.4177 2.88923 26.4808 2.92172L26.6703 3.0192C26.7019 3.05169 26.7335 3.08419 26.7335 3.11668V3.57158C26.7335 3.63657 26.7651 3.66906 26.7967 3.70156C26.9546 3.79904 27.1441 3.70156 27.2389 3.53909L27.5231 2.92172C27.5231 2.90164 27.5352 2.89397 27.5519 2.88337C27.5622 2.87682 27.5743 2.86915 27.5863 2.85673L28.218 2.46682C28.4391 2.40183 28.5339 2.14188 28.4075 1.91443ZM18.3956 11.4349C18.4272 11.37 18.5219 11.3375 18.5851 11.3375C18.6167 11.3375 18.6799 11.37 18.743 11.4025L18.7746 11.4349C18.8378 11.4674 18.901 11.5649 18.8694 11.6624L18.6799 12.6372C18.6483 12.7022 18.6167 12.7672 18.5535 12.7997C18.4588 12.8322 18.3324 12.8322 18.2693 12.7347L18.1745 12.6372C18.166 12.6198 18.1576 12.6047 18.1497 12.5907C18.1283 12.5525 18.1113 12.5223 18.1113 12.4747V11.9223C18.1113 11.8898 18.1113 11.8249 18.1429 11.7924L18.3956 11.4349ZM13.215 3.57142L13.4361 3.50643C13.4992 3.47394 13.5624 3.40895 13.5624 3.34397V2.88906C13.5624 2.79158 13.4992 2.7266 13.4045 2.7266C13.3413 2.7266 13.2465 2.79158 13.2465 2.85657L13.215 2.98654C13.215 3.05153 13.1518 3.11651 13.0886 3.11651H12.9623C12.8675 3.11651 12.8359 3.21399 12.8359 3.27898V3.34397C12.8359 3.44144 12.8991 3.50643 12.9623 3.50643L13.1518 3.53893C13.1518 3.57142 13.1834 3.57142 13.215 3.57142ZM25.1548 10.8501L25.2496 10.9801C25.2496 11.0126 25.2811 11.0451 25.3443 10.9801L25.4391 11.0126C25.5338 11.0126 25.6286 10.9476 25.6286 10.8501C25.6286 10.7526 25.7549 10.6876 25.8497 10.7201C25.8813 10.7201 25.9129 10.7526 25.9129 10.7851L26.3235 11.7599V11.8249V12.4423C26.3235 12.4748 26.3235 12.5072 26.2919 12.5397L25.9129 13.0596C25.8813 13.1246 25.8181 13.1246 25.7549 13.1246L25.0285 12.9622C25.0127 12.9622 25.0048 12.954 24.9969 12.9459C24.989 12.9378 24.9811 12.9297 24.9653 12.9297L24.7126 12.7022C24.681 12.6697 24.6494 12.6697 24.6179 12.6697H24.1441H23.7019C23.6387 12.6697 23.5755 12.6047 23.5755 12.5397L23.5439 12.0523C23.5439 11.7924 23.6703 11.5649 23.8914 11.435L24.1125 11.3375C24.1441 11.3375 24.1757 11.305 24.1757 11.305L24.4599 10.9476C24.4915 10.9151 24.5231 10.8826 24.5547 10.8826L25.0285 10.7851C25.06 10.7851 25.1232 10.8176 25.1548 10.8501ZM26.1012 4.8391L26.196 5.03406C26.2276 5.09904 26.2276 5.16403 26.196 5.19652L25.8801 6.04135C25.8485 6.10633 25.8485 6.17132 25.8801 6.23631L25.9749 6.39877C26.0065 6.49625 26.1012 6.52874 26.196 6.52874C26.2907 6.52874 26.3539 6.49625 26.4171 6.39877L26.7961 5.71641C26.8277 5.68392 26.8277 5.61894 26.8277 5.55395L26.6698 4.77411C26.6698 4.70913 26.6066 4.61165 26.5434 4.57915L26.4171 4.51417C26.3539 4.48167 26.2592 4.48167 26.1644 4.51417C26.1012 4.61165 26.0696 4.74162 26.1012 4.8391ZM26.7324 12.7674L26.7956 12.6699C26.8903 12.5724 27.0167 12.5724 27.0798 12.7024L27.1114 12.7349C27.1746 12.8324 27.1746 12.9623 27.0798 13.0273L26.7956 13.2548C26.764 13.2873 26.7324 13.3198 26.7324 13.3523L26.5429 13.9696C26.5113 14.0346 26.4481 14.0996 26.3534 14.0996H26.1007C26.0059 14.0996 25.9427 14.0346 25.9112 13.9696L25.8796 13.9047C25.848 13.8072 25.8796 13.7097 25.9427 13.6447L26.4481 13.2223C26.4797 13.2223 26.5113 13.1898 26.5113 13.1573L26.7008 12.7999C26.7324 12.7999 26.7324 12.7674 26.7324 12.7674Z" fill="white"/>
</svg>
