<svg width="15" height="15" viewBox="0 0 15 15" fill="none" xmlns="http://www.w3.org/2000/svg">
<path d="M7.5 15C11.6431 15 15 11.6431 15 7.5C15 3.35687 11.6431 0 7.5 0C3.35687 0 0 3.35687 0 7.5C0 11.6431 3.35687 15 7.5 15ZM3.43188 7.3375L10.6631 4.54938C10.9988 4.42812 11.2919 4.63125 11.1831 5.13875L11.1837 5.13812L9.9525 10.9388C9.86125 11.35 9.61687 11.45 9.275 11.2563L7.4 9.87437L6.49562 10.7456C6.39562 10.8456 6.31125 10.93 6.1175 10.93L6.25063 9.02188L9.72563 5.8825C9.87687 5.74937 9.69187 5.67438 9.4925 5.80688L5.19813 8.51062L3.34687 7.93313C2.945 7.80562 2.93625 7.53125 3.43188 7.3375Z" fill="white"/>
</svg>
