<svg width="17" height="11" viewBox="0 0 17 11" fill="none" xmlns="http://www.w3.org/2000/svg">
<path d="M1.99283 0.0742188C1.76158 0.0742188 1.54934 0.144204 1.36785 0.259404L8.32836 6.19151C8.64699 6.46338 9.07642 6.46334 9.39449 6.19151L16.3427 0.259404C16.1613 0.144204 15.949 0.0742188 15.7178 0.0742188H1.99283ZM0.883815 0.870503C0.841856 0.992577 0.816406 1.12261 0.816406 1.2594V9.16064C0.816406 9.39864 0.887403 9.61733 1.00636 9.80261L5.98776 5.22855L0.883815 0.870503ZM16.8268 0.870503L11.7351 5.22237L16.7042 9.80261C16.8232 9.61733 16.8942 9.39864 16.8942 9.16064V1.2594C16.8942 1.12261 16.8687 0.992577 16.8268 0.870503ZM11.1346 5.74089L9.89692 6.79643C9.29832 7.30807 8.41849 7.30732 7.81981 6.79643L6.58823 5.74707L1.64359 10.2903C1.75423 10.3248 1.87064 10.3458 1.99283 10.3458H15.7178C15.84 10.3458 15.9564 10.3248 16.067 10.2903L11.1346 5.74089Z" fill="white"/>
</svg>
